<svg viewBox="0 0 80 100" fill="none" xmlns="http://www.w3.org/2000/svg">
  <path d="M40 95 C20 95 8 78 8 62 C8 48 16 38 24 30 C22 42 28 48 32 44 C28 36 30 22 40 8 C42 18 38 28 44 32 C46 24 50 16 54 10 C62 24 60 40 54 48 C58 46 64 40 66 30 C72 42 72 55 68 66 C64 78 54 88 44 92 Z" fill="url(#hg1)"/>
  <path d="M40 80 C30 80 24 70 24 62 C24 55 28 50 32 46 C32 52 36 56 40 54 C44 56 48 52 48 46 C52 50 56 56 56 62 C56 70 50 80 40 80Z" fill="url(#hc1)" opacity="0.9"/>
  <circle cx="40" cy="90" r="3" fill="#F47B20" opacity="0.8"/>
  <line x1="40" y1="87" x2="40" y2="80" stroke="#F47B20" stroke-width="1" opacity="0.4"/>
  <line x1="24" y1="84" x2="56" y2="84" stroke="#F47B20" stroke-width="0.5" opacity="0.3"/>
  <circle cx="24" cy="84" r="1.5" fill="#E63A2E" opacity="0.5"/>
  <circle cx="56" cy="84" r="1.5" fill="#E63A2E" opacity="0.5"/>
  <defs>
    <linearGradient id="hg1" x1="40" y1="8" x2="40" y2="95" gradientUnits="userSpaceOnUse">
      <stop offset="0%" stop-color="#FFDD57"/>
      <stop offset="30%" stop-color="#F47B20"/>
      <stop offset="70%" stop-color="#E63A2E"/>
      <stop offset="100%" stop-color="#C0392B"/>
    </linearGradient>
    <linearGradient id="hc1" x1="40" y1="46" x2="40" y2="80" gradientUnits="userSpaceOnUse">
      <stop offset="0%" stop-color="#FFF5" stop-opacity="0.5"/>
      <stop offset="100%" stop-color="#F47B20" stop-opacity="0.25"/>
    </linearGradient>
  </defs>
</svg>
